<mxfile host="app.diagrams.net" modified="2023-06-19T19:10:05.546Z" agent="Mozilla/5.0 (Windows NT 10.0; Win64; x64) AppleWebKit/537.36 (KHTML, like Gecko) Chrome/114.0.0.0 Safari/537.36" version="21.5.0" etag="oq1FBSK-0C0-P0G_hkxE" type="github">
  <diagram name="Страница 1" id="GBn3bl2YmVbIi-FcdJkD">
    <mxGraphModel>
      <root>
        <mxCell id="0" />
        <mxCell id="1" parent="0" />
      </root>
    </mxGraphModel>
  </diagram>
</mxfile>
